<?xml version="1.0" encoding="utf-8"?>
<!-- Generator: Adobe Illustrator 17.0.0, SVG Export Plug-In . SVG Version: 6.00 Build 0)  -->
<!DOCTYPE svg PUBLIC "-//W3C//DTD SVG 1.1//EN" "http://www.w3.org/Graphics/SVG/1.1/DTD/svg11.dtd">
<svg version="1.1" id="Livello_1" xmlns="http://www.w3.org/2000/svg" xmlns:xlink="http://www.w3.org/1999/xlink" x="0px" y="0px"
	 width="800.9px" height="271.319px" viewBox="0 0 800.9 271.319" enable-background="new 0 0 800.9 271.319" xml:space="preserve">
<g>
	<defs>
		<rect id="SVGID_1_" y="0" width="800.9" height="271.319"/>
	</defs>
	<clipPath id="SVGID_2_">
		<use xlink:href="#SVGID_1_"  overflow="visible"/>
	</clipPath>
	<path clip-path="url(#SVGID_2_)" fill="#E5F4F8" d="M1399.696,6.046c11.828,0,23.656,0,35.485,0
		c5.545,1.042,11.116,1.958,16.63,3.147c30.66,6.608,57.593,19.803,77.691,45.206c13.483,17.041,18.716,36.712,15.536,57.875
		c-2.551,16.979-13.008,29.459-28.051,37.531c-3.833,2.057-8.033,3.408-11.992,5.054c-0.758-1.599-1.071-1.99-1.116-2.411
		c-0.097-0.912-0.185-1.859-0.054-2.758c1.971-13.578-1.364-25.902-8.73-37.17c-5.699-8.717-13.526-9.741-21.119-2.689
		c-2.982,2.77-5.622,6.026-7.957,9.39c-13.764,19.829-18.124,40.603-6.155,63.134c8.18,15.399,20.363,26.93,33.962,37.105
		c23.346,17.469,49.494,29.414,76.786,38.735c25.734,8.789,51.894,14.92,79.499,14.473c33.35-0.54,66.307-3.646,99.08-9.804
		c35.319-6.637,69.476-17.012,102.579-31.115c43.217-18.412,80.807-45.734,116.578-75.894
		c30.843-26.005,61.105-52.735,92.327-78.257c35.273-28.834,73.946-51.724,118.28-63.196c13.484-3.489,27.313-5.607,40.984-8.354
		c10.918,0,21.837,0,32.755,0c1.967,0.533,3.905,1.348,5.905,1.558c28.101,2.947,53.475,12.845,75.135,31.391
		c20.635,17.668,32.227,39.842,30.761,68.025c-1.143,21.976-13.908,37.411-36.071,42.705c-0.573-2.87-1.168-5.729-1.714-8.598
		c-2.126-11.187-5.727-21.684-14.215-29.681c-7.738-7.291-14.242-7.104-21.752,0.337c-15.702,15.557-19.066,40.416-9.07,63.89
		c14.067,33.033,39.489,54.666,70.129,70.077c39.638,19.938,82.506,26.079,126.311,26.687c4.715,0.065,9.431,0.009,14.264,0.009
		c0,567.174,0,1133.542,0,1700.202c-1092.011,0-2183.5,0-3274.989,0c0-566.836,0-1133.672,0-1700.507
		c18.451-1.71,36.997-2.711,55.333-5.268c45.623-6.362,89.218-20.023,131.257-39.059c46.069-20.861,84.662-52.631,122.601-85.501
		c27.904-24.176,55.543-48.746,84.507-71.562c34.506-27.181,72.704-47.798,115.672-57.894c12.487-2.934,25.268-4.576,37.915-6.81
		c9.554,0,19.107,0,28.661,0c16.182,3.843,32.877,6.223,48.429,11.859c25.688,9.31,46.351,25.914,58.497,51.461
		c12.688,26.686,10.679,57.017-12.264,74.896c-6.282,4.895-12.972,9.526-21.954,9.774c0-1.883-0.142-3.029,0.021-4.128
		c2.053-13.831-1.424-26.335-8.965-37.771c-5.046-7.652-11.338-9.236-18.466-4.006c-3.936,2.888-7.336,6.861-10.154,10.933
		c-10.922,15.782-17.249,32.679-10.903,52.278c6.774,20.92,21.5,35.331,38.249,47.94c23.468,17.666,49.845,29.668,77.347,39.038
		c21.568,7.349,43.5,13.52,66.523,14.136c38.14,1.02,75.909-2.514,113.339-9.766c29.199-5.657,57.681-13.922,85.543-24.534
		c49.105-18.703,91.683-48.122,131.631-81.912c30.963-26.19,61.38-53.062,92.78-78.697c35.083-28.641,73.475-51.543,117.6-62.895
		c13.702-3.525,27.723-5.772,41.598-8.604c10.918,0,21.837,0,32.755,0c1.966,0.533,3.903,1.348,5.902,1.557
		c28.097,2.946,53.467,12.839,75.125,31.381c20.632,17.663,32.235,39.827,30.775,68.007c-1.137,21.944-13.925,37.415-35.922,42.701
		c-0.589-2.384-0.919-4.888-1.819-7.158c-3.327-8.385-5.587-17.577-10.55-24.844c-10.007-14.653-23.972-13.163-32.528,2.438
		c-1.087,1.982-2.006,4.077-2.818,6.193c-12.009,31.314-4.603,58.574,17.461,82.264c18.228,19.571,41.155,31.825,65.527,41.699
		c29.535,11.966,60.163,19.846,91.768,21.822c26.871,1.68,53.825,0.142,80.7-3.536c33.787-4.624,66.773-12.09,99.079-23.048
		c26.41-8.958,51.66-20.468,75.881-34.345c35.308-20.229,65.55-47.346,96.552-73.424c26.659-22.424,52.715-45.647,80.151-67.046
		c34.814-27.154,73.196-47.825,116.302-58.218C1377.467,9.852,1388.633,8.168,1399.696,6.046z"/>
</g>
</svg>
